<svg width="65" height="65" viewBox="0 0 65 65" fill="none" xmlns="http://www.w3.org/2000/svg">
<circle cx="32.5" cy="32.5" r="32" stroke="#5B3E12"/>
<path d="M15.486 25.13C14.446 25.13 13.5533 24.9393 12.808 24.558C12.0627 24.168 11.4907 23.609 11.092 22.881C10.702 22.153 10.507 21.2777 10.507 20.255C10.507 19.2323 10.702 18.357 11.092 17.629C11.4907 16.901 12.0627 16.3463 12.808 15.965C13.5533 15.575 14.446 15.38 15.486 15.38C16.6733 15.38 17.7263 15.6357 18.645 16.147L18.229 17.733C17.3363 17.2303 16.448 16.979 15.564 16.979C14.9053 16.979 14.3377 17.109 13.861 17.369C13.3843 17.629 13.0203 18.006 12.769 18.5C12.5177 18.9853 12.392 19.5703 12.392 20.255C12.392 20.931 12.5177 21.516 12.769 22.01C13.0203 22.504 13.3843 22.881 13.861 23.141C14.3377 23.401 14.9053 23.531 15.564 23.531C16.4307 23.531 17.319 23.2797 18.229 22.777L18.645 24.363C17.7263 24.8743 16.6733 25.13 15.486 25.13ZM20.4082 25V15.51H22.2672V23.401H27.2072V25H20.4082ZM32.1147 25.13C31.1181 25.13 30.2514 24.935 29.5147 24.545C28.7781 24.1463 28.2104 23.583 27.8117 22.855C27.4217 22.1183 27.2267 21.2517 27.2267 20.255C27.2267 19.2497 27.4217 18.383 27.8117 17.655C28.2104 16.927 28.7781 16.368 29.5147 15.978C30.2514 15.5793 31.1181 15.38 32.1147 15.38C33.1287 15.38 33.9997 15.5793 34.7277 15.978C35.4644 16.368 36.0277 16.927 36.4177 17.655C36.8164 18.383 37.0157 19.2497 37.0157 20.255C37.0157 21.2517 36.8164 22.1183 36.4177 22.855C36.0277 23.583 35.4644 24.1463 34.7277 24.545C33.9997 24.935 33.1287 25.13 32.1147 25.13ZM32.1147 23.531C32.7561 23.531 33.3021 23.401 33.7527 23.141C34.2034 22.881 34.5457 22.5083 34.7797 22.023C35.0224 21.529 35.1437 20.9397 35.1437 20.255C35.1437 19.5703 35.0224 18.9853 34.7797 18.5C34.5457 18.006 34.2034 17.629 33.7527 17.369C33.3021 17.109 32.7561 16.979 32.1147 16.979C31.4821 16.979 30.9361 17.109 30.4767 17.369C30.0261 17.629 29.6794 18.006 29.4367 18.5C29.2027 18.9853 29.0857 19.5703 29.0857 20.255C29.0857 20.9397 29.2027 21.529 29.4367 22.023C29.6794 22.5083 30.0261 22.881 30.4767 23.141C30.9361 23.401 31.4821 23.531 32.1147 23.531ZM41.4525 25.13C40.8112 25.13 40.1828 25.065 39.5675 24.935C38.9522 24.7963 38.4408 24.61 38.0335 24.376L38.4495 22.777C38.7442 22.9243 39.0692 23.0587 39.4245 23.18C39.7798 23.2927 40.1438 23.3837 40.5165 23.453C40.8892 23.5137 41.2402 23.544 41.5695 23.544C42.1415 23.544 42.5792 23.4443 42.8825 23.245C43.1858 23.0457 43.3375 22.7553 43.3375 22.374C43.3375 22.166 43.2898 21.9927 43.1945 21.854C43.0992 21.7067 42.9562 21.581 42.7655 21.477C42.5748 21.3643 42.3322 21.2603 42.0375 21.165C41.7428 21.0697 41.3962 20.97 40.9975 20.866C40.5382 20.736 40.1265 20.5887 39.7625 20.424C39.3985 20.2593 39.0865 20.0643 38.8265 19.839C38.5752 19.6137 38.3802 19.3537 38.2415 19.059C38.1115 18.7557 38.0465 18.409 38.0465 18.019C38.0465 17.1697 38.3715 16.5197 39.0215 16.069C39.6715 15.6097 40.5902 15.38 41.7775 15.38C42.3668 15.38 42.9518 15.4363 43.5325 15.549C44.1218 15.653 44.6288 15.8003 45.0535 15.991L44.6245 17.59C44.2085 17.3907 43.7492 17.239 43.2465 17.135C42.7438 17.0223 42.2455 16.966 41.7515 16.966C41.1622 16.966 40.7158 17.057 40.4125 17.239C40.1092 17.4123 39.9575 17.6723 39.9575 18.019C39.9575 18.227 40.0008 18.4047 40.0875 18.552C40.1742 18.6907 40.3042 18.812 40.4775 18.916C40.6595 19.02 40.8848 19.1197 41.1535 19.215C41.4308 19.3103 41.7602 19.4143 42.1415 19.527C42.6355 19.6657 43.0732 19.8217 43.4545 19.995C43.8445 20.1597 44.1695 20.3547 44.4295 20.58C44.6982 20.7967 44.9018 21.0523 45.0405 21.347C45.1792 21.6417 45.2485 21.9883 45.2485 22.387C45.2485 23.2537 44.9148 23.9297 44.2475 24.415C43.5888 24.8917 42.6572 25.13 41.4525 25.13ZM46.8906 25V15.51H53.3386V17.057H48.7106V19.319H53.0786V20.814H48.7106V23.453H53.3386V25H46.8906Z" fill="#5B3E12"/>
<g clip-path="url(#clip0_9111_2033)">
<path d="M44 32.2573L41.7427 30L33.0001 38.7424L24.2575 30L22 32.2573L30.7429 41.0001L22 49.7425L24.2573 51.9998L33.0001 43.2569L41.7427 51.9998L44 49.743L35.2574 41.0001L44 32.2573Z" fill="#5B3E12"/>
</g>
<defs>
<clipPath id="clip0_9111_2033">
<rect width="22" height="22" fill="white" transform="translate(22 30)"/>
</clipPath>
</defs>
</svg>
