<svg width="65" height="65" viewBox="0 0 65 65" fill="none" xmlns="http://www.w3.org/2000/svg">
<circle cx="32.5" cy="32.5" r="32" stroke="#5B3E12"/>
<path d="M14.001 24V14.51H16.289L18.707 20.074H18.733L21.151 14.51H23.439V24H21.619V17.37H21.593L19.565 21.985H17.875L15.847 17.37H15.821V24H14.001ZM25.4395 24V14.51H31.8875V16.057H27.2595V18.319H31.6275V19.814H27.2595V22.453H31.8875V24H25.4395ZM33.7041 24V14.51H35.6021L39.5671 20.971H39.5931V14.51H41.4131V24H39.5021L35.5501 17.539H35.5241V24H33.7041ZM47.173 24.13C45.9077 24.13 44.9457 23.8397 44.287 23.259C43.637 22.6783 43.312 21.829 43.312 20.711V14.51H45.132V20.36C45.132 21.1313 45.288 21.686 45.6 22.024C45.9207 22.362 46.445 22.531 47.173 22.531C47.901 22.531 48.421 22.362 48.733 22.024C49.0537 21.686 49.214 21.1313 49.214 20.36V14.51H51.034V20.711C51.034 21.829 50.709 22.6783 50.059 23.259C49.409 23.8397 48.447 24.13 47.173 24.13Z" fill="#5B3E12"/>
<line x1="22" y1="30.5" x2="43" y2="30.5" stroke="#5B3E12"/>
<line x1="22" y1="39.5" x2="43" y2="39.5" stroke="#5B3E12"/>
<line x1="22" y1="48.5" x2="43" y2="48.5" stroke="#5B3E12"/>
</svg>
