<svg width="21" height="21" viewBox="0 0 21 21" fill="none" xmlns="http://www.w3.org/2000/svg">
<path d="M6.11608 4.24614C6.77208 4.24614 7.30406 3.71417 7.30406 3.0578V1.18798C7.30406 0.531973 6.77208 0 6.11608 0C5.45971 0 4.92773 0.531973 4.92773 1.18798V3.05784C4.92773 3.71417 5.45971 4.24614 6.11608 4.24614Z" fill="white"/>
<path d="M14.8778 4.24614C15.5338 4.24614 16.0657 3.71417 16.0657 3.0578V1.18798C16.0658 0.531973 15.5338 0 14.8778 0C14.2214 0 13.6895 0.531973 13.6895 1.18798V3.05784C13.6895 3.71417 14.2214 4.24614 14.8778 4.24614Z" fill="white"/>
<path d="M17.8455 1.69531H17.1103V3.0597C17.1103 4.29086 16.1089 5.29226 14.8781 5.29226C13.647 5.29226 12.6456 4.29086 12.6456 3.0597V1.69531H8.3484V3.0597C8.3484 4.29086 7.34705 5.29226 6.11625 5.29226C4.88512 5.29226 3.88369 4.29086 3.88369 3.0597V1.69531H3.14848C1.56823 1.69531 0.287109 2.97639 0.287109 4.55669V18.1405C0.287109 19.7208 1.56827 21.0019 3.14848 21.0019H17.8455C19.4258 21.0019 20.7069 19.7208 20.7069 18.1405V4.55669C20.7069 2.97644 19.4257 1.69531 17.8455 1.69531ZM18.455 17.6381C18.455 18.3693 17.8601 18.9641 17.129 18.9641H3.86503C3.13388 18.9641 2.53903 18.3693 2.53903 17.6381V7.01049H18.455L18.455 17.6381Z" fill="white"/>
<path d="M9.91799 15.25H7.81836V17.3497H9.91799V15.25Z" fill="white"/>
<path d="M9.91799 11.9922H7.81836V14.0918H9.91799V11.9922Z" fill="white"/>
<path d="M6.66404 15.25H4.56445V17.3497H6.66404V15.25Z" fill="white"/>
<path d="M6.66404 11.9922H4.56445V14.0918H6.66404V11.9922Z" fill="white"/>
<path d="M16.4297 8.73828H14.3301V10.8379H16.4297V8.73828Z" fill="white"/>
<path d="M13.1761 8.73828H11.0762V10.8379H13.1761V8.73828Z" fill="white"/>
<path d="M13.1761 11.9922H11.0762V14.0918H13.1761V11.9922Z" fill="white"/>
<path d="M16.4297 15.25H14.3301V17.3497H16.4297V15.25Z" fill="white"/>
<path d="M16.4297 11.9922H14.3301V14.0918H16.4297V11.9922Z" fill="white"/>
<path d="M13.1761 15.25H11.0762V17.3497H13.1761V15.25Z" fill="white"/>
<path d="M9.91799 8.73828H7.81836V10.8379H9.91799V8.73828Z" fill="white"/>
<path d="M6.66404 8.73828H4.56445V10.8379H6.66404V8.73828Z" fill="white"/>
</svg>
