<svg width="368" height="80" viewBox="0 0 368 80" fill="none" xmlns="http://www.w3.org/2000/svg">
<path d="M86.4039 49.4867C85.1446 50.0256 83.6811 50.413 82.0134 50.6488C80.3457 50.8845 78.7971 51.0024 77.3677 51.0024C72.7389 51.0024 69.1142 49.8067 66.4935 47.4151C63.8728 45.0235 62.5625 41.3519 62.5625 36.4003C62.5625 31.3477 63.9409 27.5751 66.6977 25.0824C69.4545 22.5561 73.3345 21.293 78.3376 21.293C80.7201 21.293 83.2046 21.613 85.7912 22.253C85.7912 22.9267 85.7232 23.9372 85.587 25.2845C85.4509 26.5982 85.3148 27.5245 85.1786 28.0635H81.9623C79.6139 28.0635 77.7591 28.114 76.3977 28.2151C75.0703 28.2824 74.2705 28.434 73.9982 28.6698C73.4877 29.1414 73.0963 30.1014 72.824 31.5498C72.5518 32.9645 72.4156 34.3288 72.4156 35.6424C72.4156 37.933 72.7049 39.7014 73.2835 40.9477C73.8621 42.1603 74.5938 42.9688 75.4787 43.373C76.3296 43.7772 77.742 43.9793 79.7161 43.9793C81.2816 43.9793 83.3237 43.8445 85.8423 43.5751L86.4039 49.4867ZM106.605 44.1309H98.1302L96.5987 50.4467H87.2051L96.5987 21.6467H108.596L117.581 50.4467H108.136L106.605 44.1309ZM102.317 27.8614L99.3044 38.5224H105.38L102.521 27.8614H102.317ZM157.643 50.4467H149.066L148.402 34.5814C148.3 31.4488 148.181 29.074 148.045 27.4572H147.892C147.483 28.7372 147.007 30.7245 146.462 33.4193L146.207 34.6824L142.684 50.4467H134.108L131.147 36.2488L130.636 33.7224C129.921 30.5898 129.428 28.5014 129.156 27.4572H129.003C128.866 29.1414 128.747 31.8867 128.645 35.693C128.611 35.9288 128.594 36.2993 128.594 36.8045L128.135 50.4467H119.507L120.732 21.6467H135.333L137.835 34.0761L138.447 37.4109C138.719 36.3667 138.975 35.2045 139.213 33.9245L141.561 21.6467H156.469L157.643 50.4467ZM173.89 21.4951C176.647 21.4951 178.978 21.7477 180.884 22.253C182.79 22.7582 184.305 23.7351 185.428 25.1835C186.585 26.5982 187.164 28.6361 187.164 31.2972C187.164 32.4761 186.976 33.6888 186.602 34.9351C186.262 36.1477 185.819 37.2088 185.275 38.1182C184.764 39.0277 184.305 39.6172 183.896 39.8867C183.42 40.2235 182.365 40.493 180.731 40.6951C179.097 40.8635 177.174 40.9477 174.962 40.9477C174.179 40.9477 172.971 40.914 171.337 40.8467V50.4467H162.148V21.6467C165.722 21.5456 169.636 21.4951 173.89 21.4951ZM177.719 34.4803C178.059 34.0424 178.229 33.1667 178.229 31.853C178.229 30.1351 177.855 28.9224 177.106 28.2151C176.392 27.5077 175.132 27.154 173.328 27.154C172.716 27.154 172.052 27.2045 171.337 27.3056V34.9856C171.678 35.0193 172.341 35.0361 173.328 35.0361C175.949 35.0361 177.413 34.8509 177.719 34.4803ZM198.145 21.6467H207.334V50.4467H198.145V21.6467ZM221.027 38.8256V50.4467H212.502V21.6467H221.129L228.838 33.2677C229.995 34.9856 230.88 36.434 231.493 37.613H231.646V32.7624V21.6467H240.121V50.4467H231.442L223.529 38.3203L221.232 34.8845H221.078L221.027 38.8256ZM261.361 38.8256V50.4467H252.835V21.6467H261.463L269.172 33.2677C270.329 34.9856 271.214 36.434 271.826 37.613H271.979V32.7624V21.6467H280.454V50.4467H271.775L263.862 38.3203L261.565 34.8845H261.412L261.361 38.8256ZM299.683 51.1035C294.612 51.1035 290.8 49.9245 288.247 47.5667C285.729 45.1751 284.469 41.3519 284.469 36.0972C284.469 30.9435 285.865 27.1877 288.656 24.8298C291.447 22.4719 295.139 21.293 299.734 21.293C309.4 21.293 314.233 26.0593 314.233 35.5919C314.233 40.4088 313.042 44.1982 310.659 46.9603C308.311 49.7224 304.652 51.1035 299.683 51.1035ZM299.479 45.1414C300.432 45.1414 301.231 44.9898 301.878 44.6867C302.525 44.3498 303.035 43.7772 303.41 42.9688C304.124 41.5877 304.482 39.3309 304.482 36.1982C304.482 33.133 304.124 30.9098 303.41 29.5288C302.695 28.114 301.385 27.373 299.479 27.3056C298.764 27.3056 298.015 27.3898 297.232 27.5582C296.484 27.693 296.007 27.8951 295.803 28.1645C295.395 28.6361 295.071 29.6467 294.833 31.1961C294.629 32.7119 294.527 34.3793 294.527 36.1982C294.527 39.0277 294.799 41.0993 295.343 42.413C295.718 43.3898 296.245 44.0972 296.926 44.5351C297.607 44.9393 298.458 45.1414 299.479 45.1414ZM326.667 29.4277C326.667 30.1351 327.025 30.6909 327.74 31.0951C328.488 31.4993 329.646 31.9372 331.211 32.4088C333.083 33.0151 334.615 33.6045 335.806 34.1772C337.031 34.7498 338.086 35.6424 338.971 36.8551C339.89 38.0677 340.349 39.6509 340.349 41.6045C340.349 47.8698 336.231 51.0024 327.995 51.0024C326.633 51.0024 324.966 50.8845 322.992 50.6488C321.052 50.413 319.282 50.1098 317.682 49.7393C317.75 49.0319 317.887 48.0046 318.091 46.6572C318.329 45.2761 318.55 44.2488 318.754 43.5751C319.946 43.7435 321.732 43.9456 324.115 44.1814C326.531 44.4172 328.352 44.5351 329.577 44.5351C330.292 44.5351 330.718 44.4845 330.854 44.3835C331.058 44.2488 331.211 44.0298 331.313 43.7267C331.449 43.3898 331.517 43.1035 331.517 42.8677C331.517 42.194 331.194 41.6888 330.547 41.3519C329.901 40.9814 328.795 40.5435 327.229 40.0382C325.357 39.4656 323.809 38.8761 322.583 38.2698C321.358 37.6635 320.286 36.7203 319.367 35.4403C318.448 34.1603 317.989 32.4761 317.989 30.3877C317.989 28.9056 318.329 27.4572 319.01 26.0424C319.69 24.594 320.388 23.6172 321.103 23.1119C321.647 22.7414 322.771 22.3877 324.472 22.0509C326.174 21.714 327.774 21.5456 329.271 21.5456C333.083 21.5456 336.197 21.8993 338.614 22.6067C338.58 23.2803 338.46 24.2067 338.256 25.3856C338.086 26.5645 337.899 27.6424 337.695 28.6193L336.52 28.5688C332.096 28.2656 329.271 28.114 328.046 28.114C327.535 28.114 327.246 28.1309 327.178 28.1645C327.042 28.2319 326.923 28.3835 326.821 28.6193C326.719 28.8551 326.667 29.1245 326.667 29.4277ZM344.314 21.6467H365.5V27.7098H353.503V32.9645H363.611V38.4214H353.503V44.2824H365.449V50.4467H344.314V21.6467Z" fill="#3A270B"/>
<path d="M56.0036 50.4488H19.5156L33.2734 20.8359L36.0648 26.4384L38.4575 22.4366L41.0495 26.4384L44.0404 20.8359L56.0036 50.4488Z" fill="#3A270B" stroke="white"/>
<path d="M37.7615 50.4472H1.27344L15.0312 28.543L17.8226 32.687L20.2153 29.727L22.8074 32.687L25.7982 28.543L37.7615 50.4472Z" fill="#3A270B" stroke="white"/>
</svg>
